<svg xmlns="http://www.w3.org/2000/svg" xmlns:xlink="http://www.w3.org/1999/xlink" width="8px" height="8px" viewBox="0 0 8 8"><g fill="none" fill-rule="evenodd"><g transform="translate(-840.000000, -69.000000)"><g transform="translate(748.000000, 66.000000)"><g transform="translate(92.000000, 3.000000)"><g transform="translate(4.000000, 4.000000) rotate(-270.000000) translate(-4.000000, -4.000000) translate(0.666667, 0.666667)"><path fill="#ACABB1" fill-rule="nonzero" d="M5.49222448,1.1691954 C5.55816092,1.23513185 5.60985801,1.31352265 5.64521974,1.39866126 L6.46720292,0.576689055 C6.57282037,0.471073008 6.57282152,0.299834419 6.46720547,0.194216962 C6.46720392,0.19421541 6.46720236,0.194213858 6.46720081,0.194212306 C6.36157907,0.0885943019 6.1903359,0.0885958155 6.08471602,0.194215686 L5.26321839,1.01571332 L5.26321839,1.01571332 C5.33833671,1.04697769 5.40810007,1.09115619 5.46950642,1.14742394 C5.47721433,1.15445571 5.48478702,1.16175794 5.49222448,1.1691954 Z"/><path fill="#FFD422" fill-rule="nonzero" d="M5.49222448,1.1691954 C5.48478702,1.16175794 5.47721433,1.15445571 5.46950642,1.14742394 L2.36064909,4.25628127 L2.82217715,4.71780933 C3.85287356,3.73227857 5.25801217,2.3890737 5.487762,2.16933063 C5.6224476,2.04073022 5.69776876,1.86642326 5.69979716,1.67845842 C5.70089249,1.58205544 5.68179851,1.4867478 5.64521974,1.39866126 C5.60985801,1.31352265 5.55816092,1.23513185 5.49222448,1.1691954 Z"/><path fill="#FFE477" fill-rule="nonzero" d="M5.46950642,1.14742394 C5.40810007,1.09115619 5.33835024,1.04696416 5.26321839,1.01571332 C5.17802569,0.980270453 5.08593644,0.961487492 4.99093982,0.961487492 C4.79986477,0.961487492 4.62271805,1.03680865 4.49208925,1.17352265 C4.27234618,1.40340771 2.92900609,2.80854632 1.94361055,3.83924273 L2.36064909,4.25628127 L5.46950642,1.14742394 Z"/><polygon fill="#FF0C38" fill-rule="nonzero" points="0.99418526 5.6227451 1.57390128 6.65546991 2.81108857 5.41828262 2.82217715 4.71780933 2.36064909 4.25628127"/><polygon fill="#FF3F62" fill-rule="nonzero" points="1.94361055 3.83924273 1.24313725 3.8503313 0 5.09346856 0.99418526 5.6227451 2.36064909 4.25628127"/></g></g></g></g></g></svg>