<svg xmlns="http://www.w3.org/2000/svg" width="20" height="20" viewBox="0 0 20 20">
    <defs>
        <linearGradient id="prefix__a" x1="50%" x2="50%" y1="0%" y2="100%">
            <stop offset="0%" stop-color="#FF8E00"/>
            <stop offset="100%" stop-color="#E61313"/>
        </linearGradient>
    </defs>
    <path fill="url(#prefix__a)" d="M11.188 2.083s.585 1.967.585 3.563c0 1.53-1.068 2.77-2.7 2.77-1.638 0-2.873-1.24-2.873-2.77l.024-.267c-1.6 1.782-2.557 4.09-2.557 6.6 0 3.28 2.834 5.938 6.333 5.938 3.5 0 6.333-2.658 6.333-5.939 0-4-2.05-7.571-5.145-9.895zM9.77 15.69c-1.409 0-2.549-1.04-2.549-2.331 0-1.203.832-2.049 2.225-2.316 1.401-.267 2.85-.898 3.657-1.915.31.957.467 1.967.467 2.999 0 1.967-1.702 3.563-3.8 3.563z"/>
</svg>
