<svg xmlns="http://www.w3.org/2000/svg" xmlns:xlink="http://www.w3.org/1999/xlink" width="24px" height="24px" viewBox="0 0 24 24"><g fill="none" fill-rule="evenodd"><g transform="translate(3.500000, 3.500000)"><g><path fill="#E2E7EE" d="M1.12448841 15.1805936L1.12448841 16.305082.562244206 16.305082C.251744843 16.305082 0 16.0533723 0 15.7428378 0 15.4323033.251744843 15.1805936.562244206 15.1805936L1.12448841 15.1805936M4.6511652 1.15260062C3.89087047-.0138804038 2.32892092-.343144667 1.16247504.417150061-.00400598997 1.17744479-.333270253 2.73939433.427024475 3.90587536 1.1873192 5.07232125 2.74926875 5.40158551 3.91574977 4.64129078 4.62941337 4.17613912 5.05991673 3.38200432 5.06019786 2.53009893 5.06009244 2.04101675 4.91798521 1.56247665 4.6511652 1.15260062"/><path fill="#F6BF45" d="M4.6511652,1.15260062 C3.95647734,1.31958715 3.24460589,1.40448603 2.53009893,1.40561052 C1.8156271,1.40448603 1.10375566,1.31958715 0.40903266,1.15260062 C-0.13634422,1.98936056 -0.13634422,3.0691857 0.40903266,3.9059105 C1.80311717,3.56968847 3.25711583,3.56968847 4.6511652,3.9059105 C5.19657722,3.0691857 5.19657722,1.98936056 4.6511652,1.15260062"/><path fill="#E2E7EE" d="M15.8960493,1.15260062 C15.1357546,-0.0138804038 13.573805,-0.343144667 12.4073592,0.417150061 C11.2408781,1.17744479 10.9116139,2.73939433 11.6719086,3.90587536 C12.4322033,5.07232125 13.9941529,5.40158551 15.1606339,4.64129078 C15.8742975,4.17613912 16.3048009,3.38200432 16.305082,2.53009893 C16.3049766,2.04101675 16.1628693,1.56247665 15.8960493,1.15260062"/></g><path fill="#EB8E3B" d="M15.8960493,1.15260062 C15.2013615,1.31958715 14.48949,1.40448603 13.7749831,1.40561052 C13.0605112,1.40448603 12.3486398,1.31958715 11.6539168,1.15260062 C11.1085399,1.98936056 11.1085399,3.0691857 11.6539168,3.9059105 C13.0480013,3.56968847 14.502,3.56968847 15.8960493,3.9059105 C16.4414613,3.0691857 16.4414613,1.98936056 15.8960493,1.15260062"/><path fill="#DB314D" d="M8.15254099,0 C9.54989354,0 10.6826399,1.13278151 10.6826399,2.53009893 C10.6826399,3.92741634 9.54989354,5.06019786 8.15254099,5.06019786 C6.75522358,5.06019786 5.62244206,3.92741634 5.62244206,2.53009893 C5.62244206,1.13278151 6.75522358,0 8.15254099,0"/><path fill="#E2E7EE" d="M13.0848283,5.65055427 C12.3245336,4.48407325 10.762584,4.15480898 9.59613813,4.91510371 C8.4296571,5.67539844 8.10039284,7.23734798 8.86068757,8.40382901 C9.6209823,9.5702749 11.1829318,9.89953916 12.3494129,9.13924443 C13.0630765,8.67409277 13.4935798,7.87995797 13.493861,7.02805258 C13.4937555,6.5389704 13.3516483,6.0604303 13.0848283,5.65055427"/><path fill="#DB314D" d="M13.0848283,5.65055427 C12.3901404,5.8175408 11.678269,5.90243968 10.963762,5.90356417 C10.2492902,5.90243968 9.53741875,5.8175408 8.84269575,5.65055427 C8.29731887,6.48731421 8.29731887,7.56710421 8.84269575,8.40386415 C10.2367803,8.06764212 11.6907789,8.06764212 13.0848283,8.40386415 C13.6302403,7.56710421 13.6302403,6.48731421 13.0848283,5.65055427"/><path fill="#EB8E3B" d="M5.34131996,4.49795365 C6.73867251,4.49795365 7.87141889,5.63073516 7.87141889,7.02805258 C7.87141889,8.42536999 6.73867251,9.55815151 5.34131996,9.55815151 C3.94400255,9.55815151 2.81122103,8.42536999 2.81122103,7.02805258 C2.81122103,5.63073516 3.94400255,4.49795365 5.34131996,4.49795365"/><path fill="#F6BF45" d="M8.15254099,8.9959073 C9.54989354,8.9959073 10.6826399,10.1286888 10.6826399,11.5260062 C10.6826399,12.9233236 9.54989354,14.0561052 8.15254099,14.0561052 C6.75522358,14.0561052 5.62244206,12.9233236 5.62244206,11.5260062 C5.62244206,10.1286888 6.75522358,8.9959073 8.15254099,8.9959073"/><polygon fill="#353149" points="2.81122103 16.305082 16.5862041 16.305082 16.5862041 15.1805936 2.81122103 15.1805936"/><polygon fill="#25B1A4" points="1.12448841 16.305082 2.81122103 16.305082 2.81122103 15.1805936 1.12448841 15.1805936"/><path fill="#E8A33B" d="M9.46763019,9.36755072 C10.1962284,10.5573649 9.82230086,12.1125324 8.6324867,12.8410954 C7.82289018,13.3368543 6.803682,13.3368543 5.99408548,12.8410954 C6.71941565,14.0341776 8.27454798,14.4133762 9.46763019,13.6880812 C10.6607124,12.9627862 11.0399461,11.4076187 10.3146159,10.2145365 C10.1042312,9.86844003 9.81376178,9.57797061 9.46763019,9.36755072"/><path fill="#E46D36" d="M6.65640916,4.86959707 C7.38500737,6.05941123 7.01107983,7.61457871 5.82126567,8.34314178 C5.01166915,8.83890061 3.99246097,8.83890061 3.18286445,8.34314178 C3.90819462,9.53622398 5.46332695,9.91542256 6.65640916,9.19012753 C7.84949136,8.46483251 8.22872508,6.90966503 7.50339491,5.71658283 C7.29301016,5.37048638 7.00250561,5.08001696 6.65640916,4.86959707"/><path fill="#C9CDCB" d="M13.0848283,5.65055427 C12.8767979,5.33320256 12.60049,5.06638254 12.27604,4.86959707 C13.0058681,6.05645945 12.6353843,7.61022131 11.4485219,8.34004943 C10.6388552,8.83795182 9.61806565,8.83847892 8.80783661,8.34145504 C8.82048711,8.36169584 8.82976414,8.38390448 8.84269575,8.40386415 C9.59663009,9.57944651 11.1607935,9.92125584 12.3363758,9.1673215 C13.5119582,8.41338716 13.8537675,6.84922378 13.0998332,5.67364143 C13.0948784,5.66591057 13.0898885,5.65821485 13.0848283,5.65055427"/><path fill="#B62933" d="M8.80783661 8.34229841C8.82415487 8.37675787 8.8361216 8.41456755 8.85280248 8.44854841 8.87310965 8.44232656 8.89377945 8.43801913 8.91408661 8.43179728 8.87746119 8.40451688 8.84373678 8.37101463 8.80783661 8.34229841M13.0848283 5.65055427C12.9271188 5.68822463 12.7685659 5.72055368 12.6091697 5.74979038 12.7261868 6.3787308 12.5943405 7.02854454 12.241462 7.56218457 12.0852284 7.80036528 11.8901296 8.01064461 11.6643183 8.18430779 12.1428935 8.2208888 12.6178493 8.29485906 13.0848283 8.40555088 13.6302403 7.56882608 13.6302403 6.48900095 13.0848283 5.65224101L13.0848283 5.65055427"/><g transform="translate(5.973845, 0.351403)"><path fill="#B62933" d="M3.4937855,0.0202407914 C4.22238371,1.21005495 3.84845617,2.76522243 2.65864201,3.4937855 C1.84904549,3.98954433 0.829837308,3.98954433 0.0202407914,3.4937855 C0.745570958,4.6868677 2.30070329,5.06606628 3.4937855,4.34077125 C4.6868677,3.61547623 5.06610142,2.06030875 4.34077125,0.867226548 C4.1303865,0.521130099 3.83988195,0.230660686 3.4937855,0.0202407914"/><path fill="#C9CDCB" d="M9.92220463,0.801197994 C9.71417427,0.48384628 9.43786639,0.217026264 9.11341634,0.0202407914 C9.84324446,1.20710317 9.47276067,2.76086503 8.28589829,3.49069315 C7.47623149,3.98859554 6.45544199,3.98912264 5.64521295,3.49209877 C5.65786345,3.51233956 5.66714048,3.5345482 5.68007209,3.55450787 C6.43400643,4.73009023 7.99820496,5.07186442 9.17375217,4.31793008 C10.3493345,3.56399574 10.6911439,1.99983236 9.93720952,0.824285147 C9.93225475,0.816554289 9.92726483,0.808858571 9.92220463,0.801197994"/></g><path fill="#E46D36" d="M15.8960493 1.15260062C15.7383398 1.19027098 15.579787 1.22260003 15.4203907 1.25183673 15.5374078 1.88077715 15.4055615 2.53059089 15.052683 3.06423092 14.8964494 3.30241163 14.7013507 3.51269096 14.4755393 3.68635414 14.9541146 3.72293515 15.4290704 3.79690541 15.8960493 3.90759723 16.4414613 3.07083729 16.4414613 1.9910473 15.8960493 1.15428736L15.8960493 1.15260062M11.6190576 3.84434476C11.6353759 3.87880422 11.6473426 3.9166139 11.6640235 3.95059476 11.6843307 3.94437291 11.7050005 3.94006548 11.7253076 3.93384363 11.6886822 3.90656323 11.6549578 3.87306098 11.6190576 3.84434476"/><path fill="#C9CDCB" d="M4.6511652,1.15260062 C4.44313484,0.835248909 4.16682695,0.568428893 3.84237691,0.37164342 C4.57297811,1.55804898 4.20344311,3.11205682 3.01707269,3.84262289 C2.20691393,4.3415092 1.18499995,4.34217686 0.374173519,3.84434476 C0.386824014,3.86458555 0.396101043,3.8867942 0.40903266,3.90675387 C1.16957337,5.07818967 2.73573975,5.41128422 3.90717555,4.65074351 C5.07861135,3.8902028 5.41170591,2.32403643 4.6511652,1.15260062"/><path fill="#E8A33B" d="M4.6511652 1.15260062C4.4934557 1.19027098 4.33490283 1.22260003 4.1755066 1.25183673 4.29252367 1.88077715 4.16067741 2.53059089 3.80779889 3.06423092 3.65156528 3.30241163 3.45646654 3.51269096 3.23065521 3.68635414 3.70923045 3.72293515 4.18418624 3.79690541 4.6511652 3.90759723 5.19657722 3.07083729 5.19657722 1.9910473 4.6511652 1.15428736L4.6511652 1.15260062M.374173519 3.84434476C.390491779 3.87880422.402458502 3.9166139.41913939 3.95059476.439446557 3.94437291.460116352 3.94006548.480423519 3.93384363.443798093 3.90656323.41007369 3.87306098.374173519 3.84434476"/><path fill="#C9CDCB" d="M0.240078276,16.2027535 C0.334359601,16.2693092 0.446878723,16.3050468 0.562244206,16.305082 L1.12448841,16.305082 L1.12448841,15.1805936 L1.0963762,15.1805936 C1.00100553,15.6436368 0.679261282,16.0277199 0.240078276,16.2027535"/></g></g></svg>