<svg xmlns="http://www.w3.org/2000/svg" viewBox="0 0 24 24"><path fill="#1c2026" d="M14.2001741,4.53372101 C14.2003319,4.30698414 14.0622084,4.10493219 13.8558267,4.02999746 C13.6494449,3.95506272 13.419931,4.02362995 13.2836394,4.20093829 L7.21455436,12.0618635 C6.98721799,12.3389265 6.93585428,12.7277068 7.08295551,13.0579564 C7.23005675,13.388206 7.54881329,13.599736 7.8996409,13.5999169 L9.82837555,13.5999169 C9.97040364,13.5999169 10.0855402,13.7193015 10.0855402,13.8665697 L10.0855402,19.466279 C10.0853823,19.6930159 10.2235058,19.8950678 10.4298876,19.9700025 C10.6362693,20.0449373 10.8657832,19.97637 11.0020749,19.7990617 L17.0711599,11.9381365 C17.2986169,11.6609265 17.3499043,11.271897 17.202543,10.9415595 C17.0551817,10.6112219 16.7360584,10.3998481 16.3850447,10.4000831 L14.4573387,10.4000831 C14.3153106,10.4000831 14.2001741,10.2806985 14.2001741,10.1334303 L14.2001741,4.53372101 Z"/></svg>