<svg xmlns="http://www.w3.org/2000/svg" viewBox="0 0 24 24"><path fill="#1c2026" d="M18.333 4H5.667C4.747 4 4 4.746 4 5.667v12.666A1.667 1.667 0 0 0 5.667 20h12.666A1.667 1.667 0 0 0 20 18.333V5.667A1.667 1.667 0 0 0 18.333 4zm-2 6.333h-3a.667.667 0 0 1 0-1.333h3a.667.667 0 1 1 0 1.333zM17 15.667a.667.667 0 0 1-.667.666h-3a.667.667 0 1 1 0-1.333h3c.369 0 .667.298.667.667zm-5.467-7.934l-2 2.667a.667.667 0 0 1-.486.267H9a.667.667 0 0 1-.471-.196l-1-1a.667.667 0 1 1 .942-.943l.457.457 1.539-2.052a.667.667 0 1 1 1.066.8zm0 6.667l-2 2.667a.679.679 0 0 1-1.004.071l-1-1a.667.667 0 0 1 .942-.943l.457.457 1.539-2.052a.667.667 0 1 1 1.066.8z"/></svg>