<svg xmlns="http://www.w3.org/2000/svg" viewBox="0 0 24 24"><path fill="#1c2026" d="M15.8047805,19.8845169 C15.8469367,19.926884 15.8174992,20 15.7582492,20 L15.2518116,20 C15.2342491,20 15.2174054,19.9928698 15.2049991,19.9802329 L6.91871634,11.5400638 C6.90627884,11.527395 6.89931009,11.5102381 6.89931009,11.492349 L6.89934134,11.0957338 C6.89934134,11.0358914 6.9702476,11.0056519 7.01209136,11.0477325 L15.8047805,19.8845169 Z M13.7807176,19.8848033 C13.8224676,19.9272978 13.7929051,19.9999682 13.7339051,19.9999682 L7.99168529,19.9999682 C7.70731024,19.9999682 7.42971643,19.8941935 7.22543515,19.6927028 C7.01471636,19.4849414 6.89843509,19.205178 6.89849759,18.9072073 L6.89912259,13.0382889 C6.89912259,12.9782237 6.97046635,12.9481115 7.01218511,12.990606 L13.7807176,19.8848033 Z M14.4086865,4.03840215 C14.451124,4.04776049 14.4781552,4.09025498 14.4690615,4.13354524 C14.409374,4.41926098 14.3465302,4.71758183 14.3366865,4.76214534 C14.2146864,5.31476466 13.9078426,5.81683623 13.472655,6.17582711 C13.0250612,6.5450676 12.4833111,6.74022393 11.9060298,6.74022393 C10.7292483,6.74022393 9.70309185,5.8897294 9.46602931,4.71783648 C9.46187306,4.69730544 9.44777931,4.6352985 9.39406055,4.39987586 C9.37662304,4.32344944 9.35515429,4.22938861 9.33409179,4.13672835 C9.32434178,4.09385189 9.35034179,4.0509436 9.39237305,4.04063033 C9.79237312,3.94239963 10.2223419,4.06482195 10.5142795,4.360278 L11.3070296,5.16254845 C11.4638422,5.3212582 11.675936,5.41032155 11.8969985,5.41032155 L11.9029673,5.41032155 C12.1278111,5.40876183 12.3382798,5.31769312 12.4955924,5.15401772 L13.253155,4.36562562 C13.5402488,4.06685914 13.9578426,3.93915286 14.3590302,4.02748409 L14.4086865,4.03840215 Z M19.0623748,6.03997208 C19.6670312,6.80321763 20,7.76365671 20,8.74434034 L20,9.22966877 C20,9.90276871 19.6564374,10.5020206 19.0809373,10.8327454 C18.5054997,11.1634385 17.8241871,11.1532526 17.2586245,10.8052434 L17.1799057,10.7567965 L17.1904057,18.9059022 C17.1907182,19.1580362 17.107687,19.3970876 16.9546244,19.5907478 C16.9300932,19.6217513 16.8843744,19.624075 16.8565619,19.5961273 L6.81662257,9.51719888 L6.75715381,10.6682106 C6.75365381,10.7356288 6.71574755,10.7967763 6.65681004,10.8275888 C6.08818494,11.1251139 5.42249731,11.100604 4.87643471,10.7620805 C4.33096586,10.4238753 4.0038408,9.83359978 4.0014658,9.18313173 L4.0000283,8.78524328 C3.9965283,7.81668728 4.31774711,6.86356935 4.90455972,6.10153338 C5.49143483,5.33946558 6.32371623,4.7946767 7.24806015,4.56753014 L8.3245291,4.30301389 C8.36709161,4.2925733 8.40981037,4.31924774 8.41968537,4.36269716 C8.43602912,4.43450807 8.45515412,4.51841479 8.47762288,4.61683648 C8.50852913,4.75221405 8.54046664,4.89214346 8.54452914,4.91130577 C8.8712792,6.52635093 10.2849982,7.69856215 11.906061,7.69856215 C12.6899987,7.69856215 13.456655,7.42226841 14.0648427,6.92054698 C14.663874,6.42640135 15.0864678,5.73448924 15.2546866,4.97229411 C15.2558429,4.96707381 15.3232804,4.6489222 15.3886554,4.33643652 C15.3977492,4.29301894 15.4397179,4.26535773 15.4823429,4.2747479 L16.6653744,4.53518977 C17.6064683,4.74234641 18.4577497,5.27675836 19.0623748,6.03997208 Z M13.8649364,9.91769749 C14.0714989,9.91769749 14.2395614,10.088885 14.2395614,10.2992884 C14.2395614,10.5097237 14.0715302,10.6809112 13.8649364,10.6809112 C13.6583426,10.6809112 13.4903113,10.5097237 13.4903113,10.2992884 C13.4903113,10.0888532 13.6583426,9.91769749 13.8649364,9.91769749 Z M13.8649364,11.6393131 C14.5903115,11.6393131 15.1804366,11.0381832 15.1804366,10.2993203 C15.1804366,9.56045731 14.5903115,8.95935927 13.8649364,8.95935927 C13.1395612,8.95935927 12.5494361,9.56045731 12.5494361,10.2993203 C12.5494361,11.0381832 13.1395612,11.6393131 13.8649364,11.6393131 Z"/></svg>