<svg xmlns="http://www.w3.org/2000/svg" viewBox="0 0 24 24"><path fill="#1c2026" d="M19.6098577,17.7311916 L16.5150918,14.6347304 C18.467383,11.7107008 17.8844326,7.7817968 15.1673462,5.55134448 C12.4502598,3.32089217 8.48528386,3.51641008 6.00056426,6.00336994 C3.51584466,8.4903298 3.32183561,12.4575467 5.55202719,15.1753328 C7.78221877,17.893119 11.7091775,18.4749996 14.6309157,16.5206053 L17.7256816,19.6163999 C18.2497246,20.1278667 19.0858147,20.1278667 19.6098577,19.6163999 C20.1300474,19.095768 20.1300474,18.2518236 19.6098577,17.7311916 Z M10.8392446,6.00796943 C13.5069824,6.00796943 15.6696111,8.17178291 15.6696111,10.8409821 C15.6696111,13.5101813 13.5069824,15.6739948 10.8392446,15.6739948 C8.17150681,15.6739948 6.00887805,13.5101813 6.00887805,10.8409821 C6.01181555,8.17300128 8.17272451,6.01090855 10.8392446,6.00796943 Z"/></svg>